<?xml version="1.0" encoding="utf-8"?>
<svg width="339.42" height="223.447" viewBox="0 0 339.42 223.447" fill="none" xmlns="http://www.w3.org/2000/svg">
  <defs>
    <linearGradient id="gradient_1" gradientUnits="userSpaceOnUse" x1="88.18" y1="0" x2="88.18" y2="91.397">
      <stop offset="0" stop-color="#404040" />
      <stop offset="1" stop-color="#E1E1E1" />
    </linearGradient>
  </defs>
  <g>
    <path d="M20.2357 91.3967C14.7163 91.3967 10.1625 90.7187 6.77693 89.3538C0.42173 86.7916 -1.51289 81.9855 1.18127 75.4558C1.18127 75.4558 1.23824 75.3176 1.23824 75.3176C1.23824 75.3176 78.991 47.6035 78.991 47.6035C84.5272 45.6301 90.2496 42.7939 94.6912 39.822C94.6912 39.822 94.6912 39.822 94.6912 39.822C94.6912 39.822 138.116 10.7627 138.116 10.7627C146.725 5.00185 159.167 0.279816 166.442 0.0123825C168.325 -0.0575638 169.809 0.169235 170.841 0.684975C179.594 5.05463 177.872 14.5606 166.118 26.7658C143.435 50.3193 90.2089 77.6469 47.4682 87.6838C36.9589 90.1519 27.712 91.3965 20.2357 91.3967C20.2357 91.3967 20.2357 91.3967 20.2357 91.3967ZM2.50544 75.7403C0.0104904 81.9168 1.78918 86.429 7.65514 88.7939C15.1867 91.8303 29.1155 91.2062 46.8758 87.0351C89.3655 77.057 142.289 49.8797 164.851 26.4523C176.322 14.541 178.145 5.33504 169.852 1.19501C169.121 0.830032 168.011 0.672096 166.544 0.726196C159.626 0.98037 147.633 5.57901 139.24 11.195C139.24 11.195 95.8153 40.2543 95.8153 40.2543C91.2894 43.2827 85.4529 46.1744 79.8029 48.1887C79.8029 48.1887 2.50544 75.7403 2.50544 75.7403C2.50544 75.7403 2.50544 75.7403 2.50544 75.7403Z" fill="url(#gradient_1)" fill-opacity="0.3" transform="matrix(0.978 -0.208 0.208 0.978 67.534 83.868)" />
    <path d="M21.763 91.9397C15.1884 91.9397 9.89309 91.0913 6.1815 89.3927C-0.379341 86.391 -1.74847 80.978 2.22186 73.7385C2.22186 73.7385 2.2951 73.6053 2.2951 73.6053C2.2951 73.6053 84.5054 47.3348 84.5054 47.3348C90.3611 45.4633 96.55 42.6665 101.486 39.6615C101.486 39.6615 149.74 10.2816 149.74 10.2816C159.298 4.46226 172.427 -0.0644684 179.812 0.000709534C181.721 0.0148239 183.167 0.331131 184.11 0.940933C192.052 6.07638 188.701 16.2658 174.916 28.8964C148.275 53.3073 90.5585 80.3386 46.2551 89.1539C36.9251 91.0101 28.6434 91.9397 21.763 91.9397C21.763 91.9397 21.763 91.9397 21.763 91.9397ZM3.50834 74.0632C-0.220818 80.9568 1.02795 86.0718 7.12526 88.8617C14.3051 92.1467 28.018 92.0143 45.7401 88.488C89.7827 79.7246 147.177 52.8367 173.682 28.55C187.179 16.1832 190.576 6.28094 183.001 1.38251C182.333 0.951286 181.253 0.72686 179.791 0.716011C172.902 0.679291 160.139 5.06698 150.824 10.7395C150.824 10.7395 102.569 40.1194 102.569 40.1194L102.027 39.8906C102.027 39.8906 102.569 40.1194 102.569 40.1194C97.5435 43.1797 91.2333 46.0302 85.2563 47.94C85.2563 47.94 3.50834 74.0632 3.50834 74.0632C3.50834 74.0632 3.50834 74.0632 3.50834 74.0632Z" fill="url(#gradient_1)" fill-opacity="0.3" transform="matrix(0.978 -0.208 0.208 0.978 62.271 84.871)" />
    <path d="M23.5835 92.0439C15.7996 92.044 9.72933 90.9768 5.62661 88.8504C-1.11327 85.3569 -1.81198 79.2982 3.60547 71.329C3.60547 71.329 3.69286 71.2 3.69286 71.2C3.69286 71.2 90.0975 46.705 90.0975 46.705C96.2513 44.9603 102.899 42.2289 108.334 39.2112C108.334 39.2112 161.454 9.71631 161.454 9.71631C171.911 3.9098 185.817 -0.347763 193.115 0.0224152C195.069 0.121704 196.487 0.53447 197.333 1.24898C204.34 7.17258 199.251 18.024 183.37 31.0206C152.638 56.1714 90.495 82.6672 44.8429 90.0842C36.7943 91.3918 29.6663 92.0439 23.5835 92.0439C23.5835 92.0439 23.5835 92.0439 23.5835 92.0439ZM4.85165 71.6909C-0.286045 79.3224 0.329117 85.0816 6.63462 88.35C13.4461 91.8805 26.8607 92.2546 44.4128 89.4028C89.7916 82.0302 151.59 55.6711 182.171 30.6438C197.764 17.8827 202.85 7.30263 196.123 1.6167C195.52 1.10661 194.46 0.809631 192.974 0.734039C186.099 0.383621 172.686 4.54016 162.495 10.1985C162.495 10.1985 109.375 39.6934 109.375 39.6934L108.855 39.4522C108.855 39.4522 109.375 39.6934 109.375 39.6934C103.843 42.7654 97.067 45.5485 90.7863 47.3291C90.7863 47.3291 4.85165 71.6909 4.85165 71.6909C4.85165 71.6909 4.85165 71.6909 4.85165 71.6909Z" fill="url(#gradient_1)" fill-opacity="0.3" transform="matrix(0.978 -0.208 0.208 0.978 57.065 86.205)" />
    <path d="M25.9423 91.6246C16.6192 91.6248 9.5434 90.3029 5.09541 87.6868C-1.782 83.6422 -1.6959 76.9017 5.34431 68.1943C5.34431 68.1943 5.44626 68.0683 5.44626 68.0683C5.44626 68.0683 95.7279 45.6967 95.7279 45.6967C102.156 44.1035 109.247 41.4652 115.181 38.4583C115.181 38.4583 173.168 9.07277 173.168 9.07277C184.647 3.25604 198.87 -0.60939 206.242 0.0792847C208.235 0.265457 209.671 0.797714 210.397 1.61845C216.343 8.35065 209.41 19.8368 191.377 33.1313C156.442 58.8871 89.9797 84.5909 43.2228 90.4295C36.8307 91.2277 31.0487 91.6244 25.9423 91.6246C25.9423 91.6246 25.9423 91.6246 25.9423 91.6246ZM6.54812 68.5915C-0.178078 76.9724 -0.312164 83.4115 6.16341 87.2198C12.6793 91.0515 25.3785 91.9214 42.8848 89.735C89.3551 83.9325 155.448 58.3582 190.215 32.726C207.963 19.6418 214.85 8.41002 209.109 1.91092C208.575 1.30611 207.524 0.926575 205.986 0.782776C199.141 0.144073 185.16 4.00645 174.166 9.57878C174.166 9.57878 116.178 38.9644 116.178 38.9644L115.679 38.7115C115.679 38.7115 116.178 38.9644 116.178 38.9644C110.139 42.0249 102.91 44.7129 96.3469 46.3396C96.3469 46.3396 6.54812 68.5915 6.54812 68.5915C6.54812 68.5915 6.54812 68.5915 6.54812 68.5915Z" fill="url(#gradient_1)" fill-opacity="0.3" transform="matrix(0.978 -0.208 0.208 0.978 51.966 87.88)" />
    <path d="M28.8962 90.7138C17.6658 90.7138 9.36704 89.0718 4.56904 85.8542C-2.38291 81.1926 -1.38561 73.7387 7.45127 64.2984C7.45127 64.2984 7.56693 64.1745 7.56693 64.1745C7.56693 64.1745 101.349 44.2875 101.349 44.2875C108.025 42.8717 115.541 40.3558 121.97 37.385C121.97 37.385 122.445 37.6492 122.445 37.6492L121.97 37.385C121.97 37.385 184.787 8.35136 184.787 8.35136C197.027 2.69366 211.768 -0.826126 219.087 0.167328C221.168 0.449524 222.584 1.1017 223.182 2.05324C227.937 9.60986 219.061 21.6958 198.832 35.2124C159.603 61.4223 88.9727 86.0617 41.3847 90.1383C36.896 90.5228 32.7251 90.7138 28.8962 90.7138C28.8962 90.7138 28.8962 90.7138 28.8962 90.7138ZM8.61051 64.7285C0.242706 73.7246 -0.796135 81.0709 5.694 85.4228C11.79 89.5109 24.0476 90.8978 41.149 89.4331C88.4337 85.3826 158.665 60.8654 197.707 34.78C217.656 21.4516 226.451 9.60246 221.838 2.27069C221.386 1.55269 220.338 1.07736 218.722 0.858154C211.955 -0.060791 197.458 3.46205 185.736 8.8797C185.736 8.8797 122.919 37.9136 122.919 37.9136C116.377 40.9376 108.713 43.5013 101.893 44.9475C101.893 44.9475 8.61051 64.7285 8.61051 64.7285C8.61051 64.7285 8.61051 64.7285 8.61051 64.7285Z" fill="url(#gradient_1)" fill-opacity="0.3" transform="matrix(0.978 -0.208 0.208 0.978 47.026 89.909)" />
    <path d="M32.4748 89.3201C18.8691 89.3203 9.07819 87.2695 3.94434 83.3087C-2.89196 78.0342 -0.791965 69.6186 9.85616 59.6123C9.85616 59.6123 9.98639 59.4898 9.98639 59.4898C9.98639 59.4898 106.83 42.4609 106.83 42.4609C113.722 41.2489 121.64 38.8861 128.553 35.9783C128.553 35.9783 196.121 7.55815 196.121 7.55815C209.028 2.12877 224.22 -0.99736 231.443 0.287628C233.633 0.676712 235.029 1.46313 235.478 2.56218C238.907 10.9556 227.995 23.5999 205.537 37.2529C161.953 63.7489 87.3498 87.0364 39.2349 89.1645C36.8881 89.2684 34.6327 89.3201 32.4748 89.3201C32.4748 89.3201 32.4748 89.3201 32.4748 89.3201ZM10.967 60.0744C0.689846 69.7839 -1.38786 77.8928 5.12327 82.9159C10.7678 87.2715 22.5237 89.1856 39.1119 88.4522C86.9056 86.3382 161.077 63.1649 204.454 36.7947C226.634 23.3104 237.439 10.8861 234.097 2.70732C233.749 1.85551 232.699 1.26852 230.977 0.962631C224.177 -0.245026 209.579 2.82637 197.021 8.10867C197.021 8.10867 129.453 36.5293 129.453 36.5293C122.415 39.4896 114.338 41.8978 107.292 43.1367C107.292 43.1367 10.967 60.0744 10.967 60.0744C10.967 60.0744 10.967 60.0744 10.967 60.0744Z" fill="url(#gradient_1)" fill-opacity="0.3" transform="matrix(0.978 -0.208 0.208 0.978 42.382 92.281)" />
    <path d="M36.9708 87.4842C36.9618 87.4842 36.9553 87.4842 36.9468 87.4842C20.4065 87.4818 8.79882 84.9018 3.37965 80.0229C-3.31784 73.9931 0.00776291 64.7984 12.7447 54.1324C12.7447 54.1324 12.8908 54.0103 12.8908 54.0103C12.8908 54.0103 112.298 40.2226 112.298 40.2226C119.369 39.2418 127.66 37.0646 135.043 34.2489C135.043 34.2489 207.238 6.72095 207.238 6.72095C220.928 1.50143 236.12 -1.13134 243.368 0.462364C245.689 0.97245 247.058 1.91051 247.328 3.17487C249.298 12.4117 236.261 25.5643 211.559 39.2605C163.594 65.8536 85.2814 87.4842 36.9708 87.4842C36.9708 87.4842 36.9708 87.4842 36.9708 87.4842ZM13.8063 54.6248C1.46436 65.008 -1.80299 73.8997 4.6092 79.6718C9.76319 84.3124 20.9455 86.7664 36.9468 86.7688C36.9533 86.7688 36.9644 86.7688 36.9708 86.7688C84.9379 86.7688 162.782 65.244 210.517 38.778C234.947 25.2332 247.853 12.2846 245.925 3.25198C245.71 2.24374 244.661 1.52618 242.807 1.11862C236.104 -0.355377 221.179 2.30001 208.087 7.2925C208.087 7.2925 135.892 34.8206 135.892 34.8206L135.468 34.5347C135.468 34.5347 135.892 34.8206 135.892 34.8206C128.371 37.6887 119.906 39.9092 112.671 40.9126C112.671 40.9126 13.8063 54.6248 13.8063 54.6248C13.8063 54.6248 13.8063 54.6248 13.8063 54.6248Z" fill="url(#gradient_1)" fill-opacity="0.3" transform="matrix(0.978 -0.208 0.208 0.978 37.914 95.017)" />
    <path d="M42.5152 85.2163C39.7294 85.2165 37.0408 85.1548 34.44 85.029C18.5689 84.2611 7.62176 81.1113 2.7835 75.9202C-3.61283 69.0574 1.09863 59.0755 16.0513 47.8135C16.0513 47.8135 16.2136 47.691 16.2136 47.691C16.2136 47.691 117.621 37.5363 117.621 37.5363C124.829 36.8145 133.457 34.856 141.295 32.1626C141.295 32.1626 217.947 5.82321 217.947 5.82321C232.091 0.963463 247.528 -1.20399 254.656 0.669098C257.127 1.31822 258.461 2.42746 258.515 3.87692C258.891 13.9588 243.651 27.5618 216.701 41.1984C167.165 66.2645 91.3125 85.2139 42.5152 85.2163C42.5152 85.2163 42.5152 85.2163 42.5152 85.2163ZM17.0588 48.3354C2.52389 59.3291 -2.09375 69.0134 4.05925 75.6146C8.67347 80.5652 19.2248 83.5744 34.5741 84.317C82.3291 86.6293 163.598 67.0585 215.705 40.6921C242.384 27.1926 257.473 13.7788 257.104 3.8905C257.06 2.70281 256.018 1.83276 254.007 1.3042C247.421 -0.427017 232.258 1.76976 218.738 6.41531C218.738 6.41531 142.086 32.7549 142.086 32.7549L141.691 32.4588C141.691 32.4588 142.086 32.7549 142.086 32.7549C134.099 35.4998 125.281 37.4984 117.895 38.2381C117.895 38.2381 17.0588 48.3354 17.0588 48.3354C17.0588 48.3354 17.0588 48.3354 17.0588 48.3354Z" fill="url(#gradient_1)" fill-opacity="0.3" transform="matrix(0.978 -0.208 0.208 0.978 33.761 98.129)" />
    <path d="M49.1392 82.6173C42.9197 82.6173 37.0889 82.3547 31.7237 81.8092C16.5727 80.2687 6.34829 76.5288 2.15562 70.9934C-3.73135 63.2222 2.53389 52.4603 19.7951 40.6904C19.7951 40.6904 19.9759 40.5666 19.9759 40.5666C19.9759 40.5666 122.755 34.4421 122.755 34.4421C130.053 34.0071 138.981 32.3018 147.247 29.7631C147.247 29.7631 228.134 4.92461 228.134 4.92461C242.843 0.407677 258.076 -1.22276 265.186 0.960121C267.824 1.77065 269.109 3.07369 268.904 4.72823C267.547 15.65 250.036 29.6368 220.858 43.1025C170.531 66.3283 98.0612 82.6173 49.1392 82.6173C49.1392 82.6173 49.1392 82.6173 49.1392 82.6173ZM20.7453 41.241C3.91847 52.7588 -2.2144 63.2294 3.47208 70.7371C7.48227 76.032 17.3477 79.6183 32.0009 81.1079C79.181 85.9045 163.475 68.6175 219.908 42.5738C248.818 29.2321 266.162 15.4217 267.497 4.68351C267.669 3.29205 266.646 2.24516 264.455 1.57191C257.886 -0.445625 242.918 1.22085 228.865 5.53642C228.865 5.53642 147.977 30.3751 147.977 30.3751C139.545 32.9648 130.411 34.706 122.919 35.1525C122.919 35.1525 20.7453 41.241 20.7453 41.241C20.7453 41.241 20.7453 41.241 20.7453 41.241Z" fill="url(#gradient_1)" fill-opacity="0.3" transform="matrix(0.978 -0.208 0.208 0.978 29.962 101.569)" />
    <path d="M57.0288 79.7125C46.5854 79.7125 37.0635 79.0784 28.8157 77.7458C14.4166 75.4194 4.97438 71.0592 1.50997 65.1367C-3.60717 56.3903 4.37849 44.8752 23.9959 32.7128C23.9959 32.7128 24.1976 32.587 24.1976 32.587C24.1976 32.587 127.655 30.8925 127.655 30.8925C134.992 30.7721 144.171 29.3553 152.838 27.0049C152.838 27.0049 237.687 3.99522 237.687 3.99522C252.608 -0.0513916 267.881 -1.16064 274.831 1.29706C277.655 2.29593 278.875 3.81818 278.359 5.6993C275.133 17.4485 255.291 31.7432 223.92 44.9182C173.711 66.0042 105.544 79.7125 57.0288 79.7125C57.0288 79.7125 57.0288 79.7125 57.0288 79.7125ZM24.8848 33.2915C5.71937 45.2185 -2.10051 56.4507 2.86157 64.9334C6.18761 70.6185 15.3102 74.8133 29.2437 77.0646C75.4081 84.5226 162.334 69.8547 223.02 44.3676C254.124 31.3051 273.784 17.1753 276.961 5.60071C277.407 3.98116 276.418 2.7307 274.024 1.88388C267.597 -0.389374 252.595 0.763535 238.352 4.62614C238.352 4.62614 153.504 27.6358 153.504 27.6358L153.171 27.3204C153.171 27.3204 153.504 27.6358 153.504 27.6358C144.653 30.0361 135.248 31.4839 127.701 31.6075C127.701 31.6075 24.8848 33.2915 24.8848 33.2915C24.8848 33.2915 24.8848 33.2915 24.8848 33.2915Z" fill="url(#gradient_1)" fill-opacity="0.3" transform="matrix(0.978 -0.208 0.208 0.978 26.573 105.379)" />
    <path d="M66.3275 76.6283C50.767 76.6283 36.8905 75.413 25.7395 72.8454C12.1119 69.7075 3.51788 64.6839 0.88541 58.3178C-3.1539 48.5468 6.71625 36.3296 28.6769 23.9167C28.6769 23.9167 28.9044 23.7881 28.9044 23.7881C28.9044 23.7881 132.279 26.924 132.279 26.924C139.6 27.1474 148.979 26.0535 158.012 23.9265C158.012 23.9265 246.49 3.0871 246.49 3.0871C261.497 -0.44725 276.702 -1.00818 283.469 1.72217C286.493 2.94199 287.623 4.71165 286.737 6.84001C281.508 19.3976 259.292 33.9156 225.786 46.6713C176.705 65.3553 113.714 76.6281 66.3275 76.6283C66.3275 76.6283 66.3275 76.6283 66.3275 76.6283ZM29.5003 24.5229C8.00448 36.7178 -1.66478 48.6623 2.26616 58.1713C4.80138 64.3052 13.1208 69.1543 26.323 72.1944C71.0073 82.4838 160.111 70.7787 224.939 46.0997C258.177 33.4465 280.198 19.0832 285.358 6.69263C286.137 4.82106 285.206 3.33728 282.591 2.28233C276.225 -0.286362 261.624 0.31192 247.085 3.73613C247.085 3.73613 158.605 24.5755 158.605 24.5755C149.368 26.751 139.739 27.8672 132.195 27.6384C132.195 27.6384 29.5003 24.5229 29.5003 24.5229C29.5003 24.5229 29.5003 24.5229 29.5003 24.5229Z" fill="url(#gradient_1)" fill-opacity="0.3" transform="matrix(0.978 -0.208 0.208 0.978 23.632 109.515)" />
    <path d="M77.0804 73.5241C55.441 73.5248 36.4748 71.4672 22.5332 67.1334C9.68784 63.1405 2.01875 57.3935 0.354885 50.5142C-2.26003 39.6976 9.642 26.858 33.8689 14.3604C33.8689 14.3604 34.1242 14.2287 34.1242 14.2287C34.1242 14.2287 136.59 22.5927 136.59 22.5927C143.836 23.1842 153.358 22.4521 162.713 20.5842C162.713 20.5842 254.437 2.26965 254.437 2.26965C269.636 -0.765457 284.326 -0.755676 290.987 2.29399C294.219 3.77386 295.229 5.82205 293.908 8.21716C286.545 21.5553 261.925 36.202 226.36 48.402C179.494 64.4785 122.436 73.5226 77.0804 73.5241C77.0804 73.5241 77.0804 73.5241 77.0804 73.5241ZM34.6199 14.9935C10.8707 27.2906 -0.797428 39.8689 1.75536 50.4272C3.36526 57.0824 10.8047 62.6487 23.2697 66.5237C66.0099 79.8091 156.759 71.4141 225.571 47.8096C260.863 35.7032 285.276 21.2021 292.549 8.02451C293.717 5.90854 292.85 4.11063 290.042 2.82497C283.769 -0.0469971 269.668 -0.00289917 254.952 2.93491C254.952 2.93491 163.229 21.2495 163.229 21.2495C153.645 23.1632 143.853 23.9097 136.365 23.2985C136.365 23.2985 34.6199 14.9935 34.6199 14.9935C34.6199 14.9935 34.6199 14.9935 34.6199 14.9935Z" fill="url(#gradient_1)" fill-opacity="0.3" transform="matrix(0.978 -0.208 0.208 0.978 21.165 113.921)" />
    <path d="M89.143 70.4976C60.5225 70.4985 35.6676 67.2674 19.243 60.5663C7.19664 55.6517 0.553976 49.1027 0.034338 41.6273C-0.790316 29.7823 13.2635 16.4315 39.6067 4.03466C39.6067 4.03466 39.8941 3.89931 39.8941 3.89931C39.8941 3.89931 140.556 17.8818 140.556 17.8818C147.665 18.8694 157.264 18.5338 166.895 16.9622C166.895 16.9622 261.418 1.53745 261.418 1.53745C276.686 -0.954353 290.761 -0.381477 297.277 2.99625C300.718 4.78091 301.57 7.14126 299.739 9.82162C290.117 23.9039 263.079 38.5759 225.558 50.0757C181.979 63.4324 131.453 70.4963 89.143 70.4976C89.143 70.4976 89.143 70.4976 89.143 70.4976ZM40.2788 4.6943C14.4249 16.9095 0.636665 30.0105 1.44376 41.6022C1.94883 48.8636 8.40942 55.2287 20.1264 60.0091C60.4077 76.4432 152.235 71.7129 224.829 49.4639C262.073 38.0489 288.891 23.5149 298.407 9.58773C300.051 7.18088 299.312 5.07449 296.268 3.49664C290.219 0.35984 276.387 -0.153725 261.85 2.21836C261.85 2.21836 167.327 17.6432 167.327 17.6432C157.442 19.2566 147.548 19.5949 140.184 18.5719C140.184 18.5719 40.2788 4.6943 40.2788 4.6943C40.2788 4.6943 40.2788 4.6943 40.2788 4.6943Z" fill="url(#gradient_1)" fill-opacity="0.3" transform="matrix(0.978 -0.208 0.208 0.978 19.203 118.611)" />
    <path d="M102.121 74.8501C65.7878 74.8503 34.2958 70.0222 15.9298 60.3077C4.71916 54.3783 -0.759972 46.9294 0.084816 38.7664C1.40984 25.9577 17.6913 12.2396 45.9297 0.139038C45.9297 0.139038 46.2548 0 46.2548 0C46.2548 0 144.157 19.9819 144.157 19.9819C151.059 21.3905 160.669 21.4888 170.522 20.2507C170.522 20.2507 267.336 8.08932 267.336 8.08932C282.32 6.20776 296.019 7.35612 302.242 11.016C305.831 13.1274 306.495 15.9084 304.109 18.8462C292.109 33.6262 262.656 48.2107 223.305 58.8598C183.997 69.4974 140.376 74.8499 102.121 74.8501C102.121 74.8501 102.121 74.8501 102.121 74.8501ZM46.5166 0.824356C18.7765 12.7622 2.79271 26.2428 1.49254 38.8039C0.668741 46.7649 6.01293 54.0295 16.9476 59.8128C54.2448 79.5392 146.517 78.8286 222.641 58.2288C261.709 47.6566 290.927 33.2029 302.806 18.5739C305.009 15.8594 304.445 13.4074 301.173 11.483C295.296 8.02579 282.149 6.96564 267.676 8.78355C267.676 8.78355 170.862 20.9449 170.862 20.9449L170.693 20.5977C170.693 20.5977 170.862 20.9449 170.862 20.9449C160.725 22.2182 150.8 22.1087 143.631 20.6455C143.631 20.6455 46.5166 0.824356 46.5166 0.824356C46.5166 0.824356 46.5166 0.824356 46.5166 0.824356Z" fill="url(#gradient_1)" fill-opacity="0.3" transform="matrix(0.978 -0.208 0.208 0.978 16.276 116.551)" />
    <path d="M115.452 84.1323C70.9527 84.1329 32.2672 77.1707 12.7509 63.7882C-13.9727 45.4637 2.19101 19.8864 52.9735 0.142303C52.9735 0.142303 53.3389 1.52588e-05 53.3389 1.52588e-05C53.3389 1.52588e-05 147.459 26.347 147.459 26.347C154.085 28.2018 163.629 28.7686 173.647 27.9027C173.647 27.9027 272.184 19.3854 272.184 19.3854C286.994 18.1045 299.908 19.7975 305.881 23.8033C309.643 26.3248 310.035 29.4999 306.987 32.7435C292.498 48.166 260.656 62.5404 219.624 72.1806C185.389 80.2238 148.788 84.1317 115.452 84.1323C115.452 84.1323 115.452 84.1323 115.452 84.1323ZM53.4657 0.852417C3.62999 20.3208 -12.2822 45.4204 13.8849 63.3628C30.0965 74.4794 60.4404 81.4625 99.329 83.0256C138.308 84.593 180.817 80.5101 219.031 71.5318C259.77 61.9603 291.364 47.7106 305.714 32.4361C308.564 29.4021 308.234 26.5661 304.756 24.2349C299.188 20.5007 286.493 18.8742 272.42 20.0907C272.42 20.0907 173.885 28.6078 173.885 28.6078L173.766 28.2552C173.766 28.2552 173.885 28.6078 173.885 28.6078C163.556 29.5007 153.677 28.9048 146.778 26.9733C146.778 26.9733 53.4657 0.852417 53.4657 0.852417C53.4657 0.852417 53.4657 0.852417 53.4657 0.852417Z" fill="url(#gradient_1)" fill-opacity="0.3" transform="matrix(0.978 -0.208 0.208 0.978 12.843 110.252)" />
    <path d="M128.152 94.4973C75.3667 94.4973 29.2246 84.7388 9.59133 67.0682C-13.8533 45.967 6.64099 19.0725 60.5893 0.144691C60.5893 0.144691 61.0014 0 61.0014 0C61.0014 0 150.258 33.0592 150.258 33.0592C156.533 35.3835 165.933 36.4554 176.052 35.9992C176.052 35.9992 176.114 36.3555 176.114 36.3555L176.052 35.9992C176.052 35.9992 275.676 31.51 275.676 31.51C289.993 30.8652 302.355 33.135 307.929 37.4351C311.812 40.4301 311.861 44.0361 308.069 47.5885C290.988 63.5886 256.798 77.6213 214.266 86.089C185.657 91.7845 155.981 94.4971 128.152 94.4973C128.152 94.4973 128.152 94.4973 128.152 94.4973ZM60.9809 0.878059C7.96989 19.5756 -12.1881 46.0091 10.82 66.7173C25.0627 79.5364 54.0911 88.5571 92.5564 92.1175C131.11 95.6858 174.147 93.308 213.75 85.4233C255.978 77.0164 289.904 63.1021 306.83 47.248C310.363 43.9383 310.335 40.593 306.751 37.8283C301.462 33.7489 289.603 31.601 275.802 32.2228C275.802 32.2228 176.177 36.7117 176.177 36.7117C165.724 37.1831 155.974 36.0619 149.427 33.637C149.427 33.637 60.9809 0.878059 60.9809 0.878059C60.9809 0.878059 60.9809 0.878059 60.9809 0.878059Z" fill="url(#gradient_1)" fill-opacity="0.3" transform="matrix(0.978 -0.208 0.208 0.978 9.917 103.509)" />
    <path d="M139.979 105.93C120.876 105.93 102.163 104.608 84.6196 101.955C46.4999 96.1893 18.8121 84.8783 6.65471 70.105C-13.0535 46.1549 11.9796 18.0404 68.9473 0.14534C68.9473 0.14534 69.4091 7.62939e-06 69.4091 7.62939e-06C69.4091 7.62939e-06 152.662 40.0934 152.662 40.0934C158.51 42.9099 167.668 44.488 177.83 44.5136C177.83 44.5136 177.831 44.8712 177.831 44.8712L177.83 44.5136C177.83 44.5136 277.847 44.4389 277.847 44.4389C277.871 44.4389 277.897 44.4389 277.921 44.4389C291.64 44.4389 303.327 47.29 308.434 51.8854C312.363 55.4206 311.985 59.4905 307.368 63.3455C287.605 79.8474 251.134 93.3987 207.306 100.524C185.172 104.123 162.309 105.93 139.979 105.93C139.979 105.93 139.979 105.93 139.979 105.93ZM69.227 0.899094C13.1989 18.6084 -11.4221 46.2808 7.95662 69.8297C19.9469 84.4011 47.3169 95.5667 85.0227 101.27C122.802 106.983 166.075 106.477 206.875 99.8436C250.384 92.7696 286.573 79.3313 306.163 62.9743C310.502 59.3503 310.873 55.537 307.205 52.2368C302.348 47.8665 291.13 45.1544 277.921 45.1544C277.897 45.1544 277.874 45.1544 277.849 45.1544C277.849 45.1544 177.832 45.2291 177.832 45.2291C177.808 45.2291 177.783 45.2291 177.76 45.2291C167.283 45.2291 157.786 43.5474 151.691 40.6122C151.691 40.6122 69.227 0.899094 69.227 0.899094C69.227 0.899094 69.227 0.899094 69.227 0.899094Z" fill="url(#gradient_1)" fill-opacity="0.3" transform="matrix(0.978 -0.208 0.208 0.978 7.392 96.375)" />
    <path d="M149.375 118.483C123.761 118.483 98.7761 115.991 76.2426 111.071C39.2621 102.998 13.6288 89.425 4.06238 72.8536C-11.4411 45.997 18.3218 16.7769 78.125 0.143387C78.125 0.143387 78.6399 7.62939e-06 78.6399 7.62939e-06C78.6399 7.62939e-06 154.695 47.4202 154.695 47.4202C160.037 50.7512 168.894 52.9362 178.993 53.415C178.993 53.415 278.643 58.139 278.643 58.139C291.968 58.7708 302.706 62.1307 307.367 67.1268C311.174 71.2084 310.244 75.8892 304.814 79.9684C282.292 96.8857 243.629 109.806 198.739 115.418C182.344 117.467 165.732 118.483 149.375 118.483C149.375 118.483 149.375 118.483 149.375 118.483ZM78.2886 0.91433C19.4275 17.4067 -9.85226 46.2035 5.41608 72.6526C14.8621 89.0159 40.214 102.427 76.8 110.414C113.444 118.414 156.632 119.944 198.402 114.723C242.957 109.154 281.316 96.3403 303.644 79.5682C308.865 75.6467 309.735 71.337 306.092 67.4327C301.647 62.667 291.336 59.4591 278.512 58.8511C278.512 58.8511 178.862 54.1271 178.862 54.1271C168.388 53.6305 159.18 51.3503 153.6 47.8713C153.6 47.8713 78.2886 0.91433 78.2886 0.91433C78.2886 0.91433 78.2886 0.91433 78.2886 0.91433Z" fill="url(#gradient_1)" fill-opacity="0.3" transform="matrix(0.978 -0.208 0.208 0.978 5.244 88.891)" />
    <path d="M156.557 132.061C124.711 132.061 93.8358 127.975 67.2793 120.096C31.8362 109.579 8.63965 93.6591 1.96187 75.2672C-8.85975 45.4636 25.8049 15.2716 88.2204 0.137947C88.2204 0.137947 88.7889 0 88.7889 0C88.7889 0 156.409 55.0046 156.409 55.0046C161.161 58.8705 169.608 61.6629 179.581 62.6661C179.581 62.6661 278.039 72.5688 278.039 72.5688C290.695 73.8416 300.67 77.7911 304.722 83.1338C308.316 87.873 306.728 93.073 300.365 97.4007C275.023 114.636 234.283 126.77 188.593 130.689C177.889 131.607 167.169 132.061 156.557 132.061C156.557 132.061 156.557 132.061 156.557 132.061ZM88.2602 0.921623C26.7841 15.9586 -7.32232 45.7461 3.3485 75.1376C9.95046 93.3218 32.9076 109.069 67.9908 119.478C103.112 129.899 145.857 133.63 188.358 129.984C233.694 126.094 274.106 114.062 299.234 96.9728C305.302 92.846 306.823 87.8953 303.406 83.39C299.529 78.278 289.943 74.4947 277.766 73.2699C277.766 73.2699 179.307 63.3673 179.307 63.3673C168.953 62.326 160.171 59.4156 155.212 55.3826C155.212 55.3826 88.2602 0.921623 88.2602 0.921623C88.2602 0.921623 88.2602 0.921623 88.2602 0.921623Z" fill="url(#gradient_1)" fill-opacity="0.3" transform="matrix(0.978 -0.208 0.208 0.978 3.426 81.106)" />
    <path d="M161.388 146.595C123.6 146.595 87.3266 140.456 57.8759 128.948C24.3867 115.863 4.0231 97.5198 0.533416 77.2973C-5.12008 44.5256 34.5936 13.5137 99.3571 0.128174C99.3571 0.128174 99.9779 0 99.9779 0L100.262 0.308052C100.262 0.308052 157.887 62.8067 157.887 62.8067C161.961 67.2259 169.896 70.6581 179.659 72.2236C179.659 72.2236 179.658 72.2236 179.658 72.2236C179.658 72.2236 276.042 87.6764 276.042 87.6764C288.013 89.596 297.164 94.1592 300.518 99.8829C303.708 105.326 301.339 111.045 294.017 115.573C265.81 133.019 223.135 144.2 176.936 146.25C171.734 146.48 166.547 146.595 161.388 146.595C161.388 146.595 161.388 146.595 161.388 146.595ZM99.2693 0.919502C35.4508 14.2553 -3.64261 44.8824 1.93849 77.2349C5.39304 97.2557 25.5639 115.42 58.7373 128.381C91.927 141.35 133.868 147.443 176.813 145.537C222.636 143.504 264.958 132.417 292.926 115.119C299.946 110.777 302.221 105.298 299.167 100.086C295.946 94.5901 287.141 90.2057 275.616 88.3578C275.616 88.3578 179.233 72.905 179.233 72.905C169.096 71.2796 160.85 67.7091 156.609 63.1092C156.609 63.1092 99.2693 0.919502 99.2693 0.919502C99.2693 0.919502 99.2693 0.919502 99.2693 0.919502Z" fill="url(#gradient_1)" fill-opacity="0.3" transform="matrix(0.978 -0.208 0.208 0.978 1.861 73.082)" />
    <path d="M163.88 162C120.398 162 79.325 153.315 48.2259 137.544C17.1267 121.774 3.8147e-06 100.944 0 78.8941C3.8147e-06 43.1543 44.8865 11.4951 111.694 0.113838C111.694 0.113838 112.362 0 112.362 0C112.362 0 159.25 70.782 159.25 70.782C162.555 75.7708 169.876 79.8737 179.336 82.0383C179.336 82.0383 272.695 103.401 272.695 103.401C284.153 106.023 292.21 111.109 294.799 117.356C297.358 123.527 294.08 129.742 285.808 134.407C254.708 151.943 210.267 162 163.88 162C163.88 162 163.88 162 163.88 162ZM111.475 0.906242C45.6106 12.2857 1.41034 43.5804 1.41034 78.8938C1.41034 100.753 18.3905 121.403 49.2232 137.038C80.0559 152.674 120.775 161.285 163.88 161.285C209.868 161.285 253.927 151.314 284.759 133.928C292.728 129.435 295.884 123.448 293.419 117.503C290.924 111.482 283.158 106.58 272.115 104.053C272.115 104.053 178.756 82.6899 178.756 82.6899C168.94 80.4436 161.343 76.1862 157.914 71.0093C157.914 71.0093 111.475 0.906242 111.475 0.906242C111.475 0.906242 111.475 0.906242 111.475 0.906242Z" fill="url(#gradient_1)" fill-opacity="0.3" transform="matrix(0.978 -0.208 0.208 0.978 0.432 64.895)" />
  </g>
</svg>