<?xml version="1.0" encoding="utf-8"?>
<svg width="34" height="34" viewBox="0 0 34 34" fill="none" xmlns="http://www.w3.org/2000/svg">
  <g>
    <path d="M7.3125 0.9375C7.8993 0.9375 8.375 1.4132 8.375 2L8.375 4.125L21.125 4.125L21.125 2C21.125 1.4132 21.6007 0.9375 22.1875 0.9375C22.7743 0.9375 23.25 1.4132 23.25 2L23.25 4.125L24.3125 4.125C26.6598 4.125 28.5625 6.0278 28.5625 8.375L28.5625 24.3125C28.5625 26.6598 26.6598 28.5625 24.3125 28.5625L5.1875 28.5625C2.8403 28.5625 0.9375 26.6598 0.9375 24.3125L0.9375 8.375C0.9375 6.0278 2.8403 4.125 5.1875 4.125L6.25 4.125L6.25 2C6.25 1.4132 6.7257 0.9375 7.3125 0.9375L7.3125 0.9375ZM26.4375 13.6875C26.4375 12.5139 25.4861 11.5625 24.3125 11.5625L5.1875 11.5625C4.01389 11.5625 3.0625 12.5139 3.0625 13.6875L3.0625 24.3125C3.0625 25.4861 4.01389 26.4375 5.1875 26.4375L24.3125 26.4375C25.4861 26.4375 26.4375 25.4861 26.4375 24.3125L26.4375 13.6875L26.4375 13.6875ZM14.75 16.875C15.3368 16.875 15.8125 16.3993 15.8125 15.8125C15.8125 15.2257 15.3368 14.75 14.75 14.75C14.1632 14.75 13.6875 15.2257 13.6875 15.8125C13.6875 16.3993 14.1632 16.875 14.75 16.875L14.75 16.875ZM17.9375 16.875C18.5243 16.875 19 16.3993 19 15.8125C19 15.2257 18.5243 14.75 17.9375 14.75C17.3507 14.75 16.875 15.2257 16.875 15.8125C16.875 16.3993 17.3507 16.875 17.9375 16.875L17.9375 16.875ZM22.1875 15.8125C22.1875 16.3993 21.7118 16.875 21.125 16.875C20.5382 16.875 20.0625 16.3993 20.0625 15.8125C20.0625 15.2257 20.5382 14.75 21.125 14.75C21.7118 14.75 22.1875 15.2257 22.1875 15.8125L22.1875 15.8125ZM9.4375 19C9.4375 19.5868 8.9618 20.0625 8.375 20.0625C7.7882 20.0625 7.3125 19.5868 7.3125 19C7.3125 18.4132 7.7882 17.9375 8.375 17.9375C8.9618 17.9375 9.4375 18.4132 9.4375 19L9.4375 19ZM12.625 19C12.625 19.5868 12.1493 20.0625 11.5625 20.0625C10.9757 20.0625 10.5 19.5868 10.5 19C10.5 18.4132 10.9757 17.9375 11.5625 17.9375C12.1493 17.9375 12.625 18.4132 12.625 19L12.625 19ZM15.8125 19C15.8125 19.5868 15.3368 20.0625 14.75 20.0625C14.1632 20.0625 13.6875 19.5868 13.6875 19C13.6875 18.4132 14.1632 17.9375 14.75 17.9375C15.3368 17.9375 15.8125 18.4132 15.8125 19L15.8125 19ZM19 19C19 19.5868 18.5243 20.0625 17.9375 20.0625C17.3507 20.0625 16.875 19.5868 16.875 19C16.875 18.4132 17.3507 17.9375 17.9375 17.9375C18.5243 17.9375 19 18.4132 19 19L19 19ZM22.1875 19C22.1875 19.5868 21.7118 20.0625 21.125 20.0625C20.5382 20.0625 20.0625 19.5868 20.0625 19C20.0625 18.4132 20.5382 17.9375 21.125 17.9375C21.7118 17.9375 22.1875 18.4132 22.1875 19L22.1875 19ZM8.375 23.25C8.9618 23.25 9.4375 22.7743 9.4375 22.1875C9.4375 21.6007 8.9618 21.125 8.375 21.125C7.7882 21.125 7.3125 21.6007 7.3125 22.1875C7.3125 22.7743 7.7882 23.25 8.375 23.25L8.375 23.25ZM11.5625 23.25C12.1493 23.25 12.625 22.7743 12.625 22.1875C12.625 21.6007 12.1493 21.125 11.5625 21.125C10.9757 21.125 10.5 21.6007 10.5 22.1875C10.5 22.7743 10.9757 23.25 11.5625 23.25L11.5625 23.25ZM14.75 23.25C15.3368 23.25 15.8125 22.7743 15.8125 22.1875C15.8125 21.6007 15.3368 21.125 14.75 21.125C14.1632 21.125 13.6875 21.6007 13.6875 22.1875C13.6875 22.7743 14.1632 23.25 14.75 23.25L14.75 23.25ZM17.9375 23.25C18.5243 23.25 19 22.7743 19 22.1875C19 21.6007 18.5243 21.125 17.9375 21.125C17.3507 21.125 16.875 21.6007 16.875 22.1875C16.875 22.7743 17.3507 23.25 17.9375 23.25L17.9375 23.25Z" fill="#89898B" fill-rule="evenodd" transform="translate(2.25 2.25)" />
  </g>
</svg>