<?xml version="1.0" encoding="utf-8"?>
<svg width="39" height="39" viewBox="0 0 39 39" fill="none" xmlns="http://www.w3.org/2000/svg">
  <g>
    <path d="M17.25 1.40625C8.49973 1.40625 1.40625 8.49973 1.40625 17.25C1.40625 26.0003 8.49973 33.0938 17.25 33.0938C26.0003 33.0938 33.0938 26.0003 33.0938 17.25C33.0938 8.49973 26.0003 1.40625 17.25 1.40625L17.25 1.40625ZM18.4688 7.5C18.4688 6.82691 17.9231 6.28125 17.25 6.28125C16.5769 6.28125 16.0313 6.82691 16.0313 7.5L16.0313 8.8254C15.0125 9.00587 14.0412 9.41544 13.2372 10.0541C12.0796 10.9737 11.4285 12.2471 11.4285 13.5938C11.4285 14.9404 12.0796 16.2138 13.2372 17.1334C14.0537 17.782 15.0281 18.1844 16.0313 18.362L16.0313 23.2001C15.4671 23.0628 14.9529 22.8304 14.5344 22.5166L13.1063 21.4454C12.5678 21.0416 11.8039 21.1507 11.4 21.6892C10.9961 22.2275 11.1053 22.9915 11.6437 23.3954L13.0719 24.4666C13.9383 25.1165 14.9717 25.5141 16.0313 25.6842L16.0313 27C16.0313 27.6731 16.5769 28.2188 17.25 28.2188C17.9231 28.2188 18.4688 27.6731 18.4688 27L18.4688 25.6844C19.5284 25.5141 20.5619 25.1165 21.4285 24.4666C22.6391 23.5584 23.3438 22.2818 23.3438 20.9063C23.3438 19.5305 22.6391 18.2539 21.4285 17.3459C20.5619 16.6959 19.5284 16.2983 18.4688 16.1281L18.4688 11.3229C18.9387 11.4562 19.3771 11.6695 19.7462 11.9627L20.4204 12.4983C20.9474 12.9169 21.714 12.8291 22.1328 12.3021C22.5514 11.775 22.4636 11.0084 21.9365 10.5897L21.2623 10.0541C20.4586 9.41553 19.4873 9.006 18.4688 8.82546L18.4688 7.5L18.4688 7.5ZM14.7534 11.9627C15.1226 11.6694 15.5612 11.4561 16.0313 11.3228L16.0313 15.8646C15.5522 15.7286 15.1148 15.5119 14.7534 15.2248C14.1135 14.7166 13.866 14.1185 13.866 13.5937C13.866 13.069 14.1135 12.4709 14.7534 11.9627L14.7534 11.9627ZM18.4688 23.2001L18.4688 18.6122C19.033 18.7495 19.5474 18.9819 19.9659 19.2959C20.6589 19.8155 20.9063 20.4103 20.9063 20.9062C20.9063 21.402 20.6589 21.9968 19.9659 22.5166C19.5474 22.8306 19.033 23.0629 18.4688 23.2001L18.4688 23.2001Z" fill="#7DBF80" fill-rule="evenodd" transform="translate(2.25 2.25)" />
  </g>
</svg>