<?xml version="1.0" encoding="utf-8"?>
<svg width="39" height="39" viewBox="0 0 39 39" fill="none" xmlns="http://www.w3.org/2000/svg">
  <g>
    <path d="M5.8 3.8C3.64609 3.8 1.9 5.54609 1.9 7.7L1.9 15.5C1.9 17.6539 3.64609 19.4 5.8 19.4L5.8 7.7L25.3 7.7C25.3 5.54609 23.554 3.8 21.4 3.8L5.8 3.8L5.8 3.8ZM9.7 15.5C9.7 13.3461 11.4461 11.6 13.6 11.6L29.2 11.6C31.354 11.6 33.1 13.3461 33.1 15.5L33.1 23.3C33.1 25.454 31.354 27.2 29.2 27.2L13.6 27.2C11.4461 27.2 9.7 25.454 9.7 23.3L9.7 15.5L9.7 15.5ZM21.4 23.3C23.554 23.3 25.3 21.5539 25.3 19.4C25.3 17.2461 23.554 15.5 21.4 15.5C19.2461 15.5 17.5 17.2461 17.5 19.4C17.5 21.5539 19.2461 23.3 21.4 23.3L21.4 23.3Z" fill="#C07D7D" fill-rule="evenodd" transform="translate(2 4)" />
  </g>
</svg>