<?xml version="1.0" encoding="utf-8"?>
<svg width="35" height="35" viewBox="0 0 35 35" fill="none" xmlns="http://www.w3.org/2000/svg">
  <g>
    <path d="M26.25 13.125C26.25 13.4151 26.1347 13.6933 25.9296 13.8984C25.7246 14.1035 25.4463 14.2188 25.1563 14.2188L14.2188 14.2188L14.2188 25.1563C14.2188 25.4463 14.1035 25.7246 13.8984 25.9296C13.6933 26.1347 13.4151 26.25 13.125 26.25C12.8349 26.25 12.5567 26.1347 12.3516 25.9296C12.1465 25.7246 12.0313 25.4463 12.0313 25.1563L12.0313 14.2188L1.09375 14.2188C0.80367 14.2188 0.52547 14.1035 0.320352 13.8984C0.115234 13.6933 0 13.4151 0 13.125C0 12.8349 0.115234 12.5567 0.320352 12.3516C0.52547 12.1465 0.80367 12.0313 1.09375 12.0313L12.0313 12.0313L12.0313 1.09375C12.0313 0.80367 12.1465 0.52547 12.3516 0.320352C12.5567 0.115234 12.8349 0 13.125 0C13.4151 0 13.6933 0.115234 13.8984 0.320352C14.1035 0.52547 14.2188 0.80367 14.2188 1.09375L14.2188 12.0313L25.1563 12.0313C25.4463 12.0313 25.7246 12.1465 25.9296 12.3516C26.1347 12.5567 26.25 12.8349 26.25 13.125L26.25 13.125Z" fill="#77777F" fill-rule="evenodd" transform="translate(4.375 4.375)" />
  </g>
</svg>