<?xml version="1.0" encoding="utf-8"?>
<svg width="35" height="35" viewBox="0 0 35 35" fill="none" xmlns="http://www.w3.org/2000/svg">
  <g>
    <path d="M2.5 0C3.8809 0 5 1.1191 5 2.5L5 21.5C5 22.8809 3.8809 24 2.5 24L2.5 24C1.1191 24 0 22.8809 0 21.5L0 2.5C0 1.1191 1.1191 0 2.5 0Z" fill="#77777F" transform="translate(26 5)" />
    <path d="M27.5 0C28.3285 0 29 0.671459 29 1.5L29 1.5C29 2.32854 28.3285 3 27.5 3L1.5 3C0.67146 3 0 2.32854 0 1.5L0 1.5C0 0.671459 0.67146 0 1.5 0L27.5 0Z" fill="#77777F" transform="translate(3 30)" />
    <path d="M2.5 0C3.8809 0 5 1.1191 5 2.5L5 16.5C5 17.8809 3.8809 19 2.5 19L2.5 19C1.1191 19 0 17.8809 0 16.5L0 2.5C0 1.1191 1.1191 0 2.5 0Z" fill="#77777F" transform="translate(16 9)" />
    <path d="M2.5 0C3.8809 0 5 1.1191 5 2.5L5 18.5C5 19.8809 3.8809 21 2.5 21L2.5 21C1.1191 21 0 19.8809 0 18.5L0 2.5C0 1.1191 1.1191 0 2.5 0Z" fill="#77777F" transform="translate(6 7)" />
  </g>
</svg>