<?xml version="1.0" encoding="utf-8"?>
<svg width="35" height="35" viewBox="0 0 35 35" fill="none" xmlns="http://www.w3.org/2000/svg">
  <g>
    <path d="M26.25 13.125C26.25 15.7209 25.4802 18.2585 24.038 20.4168C22.5959 22.5752 20.546 24.2575 18.1477 25.251C15.7495 26.2443 13.1105 26.5042 10.5644 25.9978C8.01845 25.4914 5.67979 24.2413 3.84423 22.4058C2.00866 20.5703 0.758631 18.2316 0.252199 15.6856C-0.254232 13.1395 0.00568724 10.5006 0.999087 8.10228C1.99248 5.704 3.67475 3.65415 5.83314 2.21196C7.99154 0.769768 10.5291 0 13.125 0C16.606 0 19.9443 1.38281 22.4058 3.84422C24.8672 6.30563 26.25 9.64403 26.25 13.125L26.25 13.125Z" fill="#2D2D2D" fill-rule="evenodd" fill-opacity="0.2" transform="translate(4.375 4.375)" />
    <path d="M14.5 0.28125C11.6877 0.28125 8.93875 1.11517 6.60049 2.67755C4.26223 4.23991 2.43978 6.46059 1.36359 9.05872C0.287411 11.6569 0.00583172 14.5158 0.554465 17.274C1.1031 20.0321 2.4573 22.5656 4.44584 24.5542C6.43436 26.5427 8.9679 27.8969 11.726 28.4455C14.4843 28.9942 17.3432 28.7126 19.9413 27.6364C22.5394 26.5602 24.7601 24.7378 26.3225 22.3995C27.8849 20.0613 28.7188 17.3123 28.7188 14.5C28.7148 10.7302 27.2155 7.1159 24.5498 4.45022C21.8841 1.78455 18.2698 0.285231 14.5 0.28125L14.5 0.28125ZM14.5 26.5312C12.1204 26.5312 9.79433 25.8257 7.8158 24.5037C5.83727 23.1816 4.29519 21.3026 3.38458 19.1041C2.47397 16.9057 2.2357 14.4867 2.69994 12.1528C3.16417 9.81899 4.31002 7.67522 5.99263 5.99263C7.67523 4.31002 9.81899 3.16416 12.1528 2.69992C14.4867 2.23569 16.9057 2.47396 19.1041 3.38458C21.3026 4.29519 23.1816 5.83727 24.5037 7.8158C25.8257 9.79432 26.5313 12.1204 26.5313 14.5C26.5276 17.6898 25.2589 20.7478 23.0034 23.0034C20.7478 25.2589 17.6898 26.5276 14.5 26.5312L14.5 26.5312ZM23.25 14.5C23.25 14.7901 23.1347 15.0683 22.9296 15.2734C22.7246 15.4785 22.4463 15.5938 22.1563 15.5938L14.5 15.5938C14.2099 15.5938 13.9317 15.4785 13.7266 15.2734C13.5215 15.0683 13.4063 14.7901 13.4063 14.5L13.4063 6.84375C13.4063 6.55367 13.5215 6.27547 13.7266 6.07035C13.9317 5.86524 14.2099 5.75 14.5 5.75C14.7901 5.75 15.0683 5.86524 15.2734 6.07035C15.4785 6.27547 15.5938 6.55367 15.5938 6.84375L15.5938 13.4063L22.1563 13.4063C22.4463 13.4063 22.7246 13.5215 22.9296 13.7266C23.1347 13.9317 23.25 14.2099 23.25 14.5L23.25 14.5Z" fill="#77777F" fill-rule="evenodd" transform="translate(3 3)" />
  </g>
</svg>