<?xml version="1.0" encoding="utf-8"?>
<svg width="35" height="35" viewBox="0 0 35 35" fill="none" xmlns="http://www.w3.org/2000/svg">
  <g>
    <path d="M15.2266 3.48013C15.6538 3.05299 16.3462 3.05299 16.7734 3.48013L29.4454 16.1521C29.8725 16.5792 30.565 16.5792 30.9921 16.1521C31.4192 15.7249 31.4192 15.0324 30.9921 14.6053L18.3202 1.93333C17.0388 0.651919 14.9612 0.651922 13.6798 1.93333L1.00785 14.6053C0.580716 15.0324 0.580716 15.7249 1.00785 16.1521C1.43499 16.5792 2.12751 16.5792 2.55465 16.1521L15.2266 3.48013L15.2266 3.48013ZM16 5.80032L27.8985 17.6989C27.9419 17.7422 27.9862 17.7841 28.0313 17.8245L28.0313 26.8631C28.0313 28.3732 26.807 29.5975 25.2969 29.5975L20.375 29.5975C19.771 29.5975 19.2813 29.1078 19.2813 28.5037L19.2813 21.9412C19.2813 21.3372 18.7915 20.8475 18.1875 20.8475L13.8125 20.8475C13.2084 20.8475 12.7188 21.3372 12.7188 21.9412L12.7188 28.5037C12.7188 29.1078 12.2291 29.5975 11.625 29.5975L6.70313 29.5975C5.19298 29.5975 3.96875 28.3732 3.96875 26.8631L3.96875 17.8245C4.01386 17.7841 4.0581 17.7422 4.10144 17.6989L16 5.80032L16 5.80032Z" fill="#77777F" fill-rule="evenodd" transform="translate(1.5 2.121)" />
  </g>
</svg>